# xmcd
#
# Track frame offsets: 
#        150
#        34758
#        59940
#        85305
#
# Disc length: 1534 seconds
#
# Revision: 6
# Processed by: cddbd v1.5.2PL0 Copyright (c) Steve Scherf et al.
# Submitted via: ExactAudioCopyFreeDBPlugin 1.0
#
DISCID=3405fc04
DTITLE=Pat Metheny - As It Is (Plus GSM EP)
DYEAR=2002
DGENRE=Jazz
TTITLE0=As It Is
TTITLE1=A Map Of The World
TTITLE2=Go Get It
TTITLE3=The Roots Of Coincidence
EXTD=CD ukaza³ siê jako dodatek do Gazety Wyborczej. YEAR: 2002
EXTT0=
EXTT1=
EXTT2=
EXTT3=
PLAYORDER=
